<mxfile host="app.diagrams.net" modified="2024-05-15T09:34:57.208Z" agent="Mozilla/5.0 (X11; Ubuntu; Linux x86_64; rv:125.0) Gecko/20100101 Firefox/125.0" etag="If3ETQFNiT5CTqxGVIO-" version="24.3.1" type="device">
  <diagram name="Page-1" id="Gyie3XGgjaAd0Mf_EJfI">
    <mxGraphModel dx="1647" dy="877" grid="1" gridSize="10" guides="1" tooltips="1" connect="1" arrows="1" fold="1" page="1" pageScale="1" pageWidth="1169" pageHeight="827" math="0" shadow="0">
      <root>
        <mxCell id="0" />
        <mxCell id="1" parent="0" />
        <mxCell id="qJF2mZlItJZDjDZn19Jy-12" style="edgeStyle=orthogonalEdgeStyle;rounded=0;orthogonalLoop=1;jettySize=auto;html=1;exitX=1;exitY=0.5;exitDx=0;exitDy=0;entryX=0;entryY=0.5;entryDx=0;entryDy=0;" edge="1" parent="1" source="qJF2mZlItJZDjDZn19Jy-1" target="qJF2mZlItJZDjDZn19Jy-5">
          <mxGeometry relative="1" as="geometry" />
        </mxCell>
        <mxCell id="qJF2mZlItJZDjDZn19Jy-1" value="&lt;div&gt;&lt;b&gt;Tidyverse&lt;/b&gt; &lt;b&gt;packages&lt;/b&gt;&lt;/div&gt;&lt;div&gt;e.g. deplr, magritr, tidyr, tibble, ggplot2&lt;br&gt;&lt;/div&gt;&lt;div&gt;&lt;br&gt;&lt;/div&gt;&lt;div&gt;The MIT license&lt;br&gt;&lt;/div&gt;" style="rounded=0;whiteSpace=wrap;html=1;fillColor=#d5e8d4;strokeColor=#82b366;" vertex="1" parent="1">
          <mxGeometry x="320" y="90" width="220" height="100" as="geometry" />
        </mxCell>
        <mxCell id="qJF2mZlItJZDjDZn19Jy-10" style="edgeStyle=orthogonalEdgeStyle;rounded=0;orthogonalLoop=1;jettySize=auto;html=1;exitX=1;exitY=0.5;exitDx=0;exitDy=0;" edge="1" parent="1" source="qJF2mZlItJZDjDZn19Jy-2" target="qJF2mZlItJZDjDZn19Jy-5">
          <mxGeometry relative="1" as="geometry" />
        </mxCell>
        <mxCell id="qJF2mZlItJZDjDZn19Jy-2" value="&lt;div&gt;&lt;b&gt;simmer support packages&lt;/b&gt;&lt;br&gt;&lt;/div&gt;&lt;div&gt;simmer.plot&lt;/div&gt;&lt;div&gt;simmer.bricks&lt;/div&gt;&lt;div&gt;&lt;br&gt;&lt;/div&gt;&lt;div&gt;The MIT license&lt;br&gt;&lt;/div&gt;" style="rounded=0;whiteSpace=wrap;html=1;fillColor=#d5e8d4;strokeColor=#82b366;" vertex="1" parent="1">
          <mxGeometry x="320" y="280" width="220" height="100" as="geometry" />
        </mxCell>
        <mxCell id="qJF2mZlItJZDjDZn19Jy-8" style="edgeStyle=orthogonalEdgeStyle;rounded=0;orthogonalLoop=1;jettySize=auto;html=1;exitX=1;exitY=0.5;exitDx=0;exitDy=0;entryX=0;entryY=0.5;entryDx=0;entryDy=0;" edge="1" parent="1" source="qJF2mZlItJZDjDZn19Jy-3" target="qJF2mZlItJZDjDZn19Jy-5">
          <mxGeometry relative="1" as="geometry">
            <Array as="points">
              <mxPoint x="670" y="425" />
              <mxPoint x="670" y="365" />
            </Array>
          </mxGeometry>
        </mxCell>
        <mxCell id="qJF2mZlItJZDjDZn19Jy-3" value="&lt;div&gt;&lt;b&gt;simEd&lt;/b&gt;&lt;/div&gt;&lt;div&gt;GPL &amp;gt;= 2&lt;br&gt;&lt;/div&gt;" style="rounded=0;whiteSpace=wrap;html=1;fillColor=#f8cecc;strokeColor=#b85450;" vertex="1" parent="1">
          <mxGeometry x="320" y="390" width="120" height="70" as="geometry" />
        </mxCell>
        <mxCell id="qJF2mZlItJZDjDZn19Jy-9" style="edgeStyle=orthogonalEdgeStyle;rounded=0;orthogonalLoop=1;jettySize=auto;html=1;exitX=1;exitY=0.5;exitDx=0;exitDy=0;entryX=0;entryY=0.5;entryDx=0;entryDy=0;" edge="1" parent="1" source="qJF2mZlItJZDjDZn19Jy-4" target="qJF2mZlItJZDjDZn19Jy-5">
          <mxGeometry relative="1" as="geometry">
            <Array as="points">
              <mxPoint x="670" y="505" />
              <mxPoint x="670" y="365" />
            </Array>
          </mxGeometry>
        </mxCell>
        <mxCell id="qJF2mZlItJZDjDZn19Jy-4" value="&lt;div&gt;&lt;b&gt;Rlab&lt;/b&gt;&lt;/div&gt;&lt;div&gt;GPL &amp;gt;= 2&lt;br&gt;&lt;/div&gt;" style="rounded=0;whiteSpace=wrap;html=1;fillColor=#f8cecc;strokeColor=#b85450;" vertex="1" parent="1">
          <mxGeometry x="320" y="470" width="120" height="70" as="geometry" />
        </mxCell>
        <mxCell id="qJF2mZlItJZDjDZn19Jy-5" value="&lt;div&gt;&lt;b&gt;treat-simr&lt;/b&gt;&lt;/div&gt;&lt;div&gt;&lt;br&gt;&lt;/div&gt;&lt;div&gt;LICENSE = GPL v3&lt;br&gt;&lt;/div&gt;" style="rounded=0;whiteSpace=wrap;html=1;fillColor=#f8cecc;strokeColor=#b85450;" vertex="1" parent="1">
          <mxGeometry x="800" y="320" width="140" height="90" as="geometry" />
        </mxCell>
        <mxCell id="qJF2mZlItJZDjDZn19Jy-7" style="edgeStyle=orthogonalEdgeStyle;rounded=0;orthogonalLoop=1;jettySize=auto;html=1;exitX=1;exitY=0.5;exitDx=0;exitDy=0;entryX=0;entryY=0.5;entryDx=0;entryDy=0;" edge="1" parent="1" source="qJF2mZlItJZDjDZn19Jy-6" target="qJF2mZlItJZDjDZn19Jy-3">
          <mxGeometry relative="1" as="geometry" />
        </mxCell>
        <mxCell id="qJF2mZlItJZDjDZn19Jy-6" value="&lt;div&gt;simEd dependencies&lt;br&gt;&lt;/div&gt;&lt;div&gt;e.g &lt;b&gt;rstream&lt;/b&gt;&lt;/div&gt;&lt;div&gt;GPL v2&lt;br&gt;&lt;/div&gt;" style="rounded=0;whiteSpace=wrap;html=1;fillColor=#f8cecc;strokeColor=#b85450;" vertex="1" parent="1">
          <mxGeometry x="130" y="390" width="120" height="70" as="geometry" />
        </mxCell>
        <mxCell id="qJF2mZlItJZDjDZn19Jy-14" style="edgeStyle=orthogonalEdgeStyle;rounded=0;orthogonalLoop=1;jettySize=auto;html=1;exitX=1;exitY=0.5;exitDx=0;exitDy=0;entryX=0;entryY=0.5;entryDx=0;entryDy=0;" edge="1" parent="1" source="qJF2mZlItJZDjDZn19Jy-13" target="qJF2mZlItJZDjDZn19Jy-5">
          <mxGeometry relative="1" as="geometry">
            <Array as="points">
              <mxPoint x="670" y="585" />
              <mxPoint x="670" y="365" />
            </Array>
          </mxGeometry>
        </mxCell>
        <mxCell id="qJF2mZlItJZDjDZn19Jy-13" value="&lt;div&gt;&lt;b&gt;RCurl&lt;/b&gt;&lt;/div&gt;&lt;div&gt;BSD 3-Clause&lt;br&gt;&lt;/div&gt;" style="rounded=0;whiteSpace=wrap;html=1;fillColor=#d5e8d4;strokeColor=#82b366;" vertex="1" parent="1">
          <mxGeometry x="320" y="550" width="120" height="70" as="geometry" />
        </mxCell>
        <mxCell id="qJF2mZlItJZDjDZn19Jy-16" style="edgeStyle=orthogonalEdgeStyle;rounded=0;orthogonalLoop=1;jettySize=auto;html=1;exitX=1;exitY=0.5;exitDx=0;exitDy=0;entryX=0;entryY=0.5;entryDx=0;entryDy=0;" edge="1" parent="1" source="qJF2mZlItJZDjDZn19Jy-15" target="qJF2mZlItJZDjDZn19Jy-5">
          <mxGeometry relative="1" as="geometry">
            <Array as="points">
              <mxPoint x="670" y="235" />
              <mxPoint x="670" y="365" />
            </Array>
          </mxGeometry>
        </mxCell>
        <mxCell id="qJF2mZlItJZDjDZn19Jy-15" value="&lt;div&gt;&lt;b&gt;simmer&lt;/b&gt;&lt;/div&gt;&lt;div&gt;GPL &amp;gt;= 2&lt;br&gt;&lt;/div&gt;" style="rounded=0;whiteSpace=wrap;html=1;fillColor=#f8cecc;strokeColor=#b85450;" vertex="1" parent="1">
          <mxGeometry x="320" y="200" width="120" height="70" as="geometry" />
        </mxCell>
        <mxCell id="qJF2mZlItJZDjDZn19Jy-17" value="Copyleft license" style="rounded=0;whiteSpace=wrap;html=1;fillColor=#f8cecc;strokeColor=#b85450;" vertex="1" parent="1">
          <mxGeometry x="820" y="80" width="120" height="30" as="geometry" />
        </mxCell>
        <mxCell id="qJF2mZlItJZDjDZn19Jy-18" value="Permissive license" style="rounded=0;whiteSpace=wrap;html=1;fillColor=#d5e8d4;strokeColor=#82b366;" vertex="1" parent="1">
          <mxGeometry x="820" y="110" width="120" height="30" as="geometry" />
        </mxCell>
      </root>
    </mxGraphModel>
  </diagram>
</mxfile>
